<svg xmlns="http://www.w3.org/2000/svg" viewBox="0 0 512 640" x="0px" y="0px"><path d="M488,16H24a8,8,0,0,0-8,8V488a8,8,0,0,0,8,8H488a8,8,0,0,0,8-8V24A8,8,0,0,0,488,16ZM32,32H480V80H32Zm0,448V96H480V480Z"/><circle cx="120" cy="56" r="8"/><circle cx="88" cy="56" r="8"/><circle cx="56" cy="56" r="8"/><path d="M456,48H440a8,8,0,0,0,0,16h16a8,8,0,0,0,0-16Z"/><path d="M440,128H72a8,8,0,0,0-8,8V296a8,8,0,0,0,8,8H440a8,8,0,0,0,8-8V136A8,8,0,0,0,440,128ZM123.314,288l30.613-30.613,35.1,14.041a8,8,0,0,0,8.628-1.771l43.363-43.363,66.542,44.362a8,8,0,0,0,7.409.772l35.5-14.2L386.374,288ZM432,288H410.96l-53.753-46.074a8,8,0,0,0-8.178-1.354l-36.093,14.437-68.5-45.665a8,8,0,0,0-10.095,1l-44.27,44.27-35.1-14.041a8,8,0,0,0-8.628,1.771L100.687,288H80V144H432Z"/><path d="M72,352h96a8,8,0,0,0,0-16H72a8,8,0,0,0,0,16Z"/><path d="M312,224a24,24,0,1,0-24-24A24.027,24.027,0,0,0,312,224Zm0-32a8,8,0,1,1-8,8A8.009,8.009,0,0,1,312,192Z"/><path d="M232,384H72a8,8,0,0,0,0,16H232a8,8,0,0,0,0-16Z"/><path d="M232,432H72a8,8,0,0,0,0,16H232a8,8,0,0,0,0-16Z"/><path d="M440,384H280a8,8,0,0,0,0,16H440a8,8,0,0,0,0-16Z"/><path d="M440,432H280a8,8,0,0,0,0,16H440a8,8,0,0,0,0-16Z"/><text x="0" y="527" fill="#000000" font-size="5px" font-weight="bold" font-family="'Helvetica Neue', Helvetica, Arial-Unicode, Arial, Sans-serif">Created by iconixar</text><text x="0" y="532" fill="#000000" font-size="5px" font-weight="bold" font-family="'Helvetica Neue', Helvetica, Arial-Unicode, Arial, Sans-serif">from the Noun Project</text></svg>